# AST/ASF file generated using VICON BodyLanguage
# -----------------------------------------------
:version 1.10
:name VICON
:units
  mass 1.0
  length 0.45
  angle deg
:documentation
   .ast/.asf automatically generated from VICON data using
   VICON BodyBuilder and BodyLanguage model FoxedUp or BRILLIANT.MOD
:root
   order TX TY TZ RX RY RZ
   axis XYZ
   position 0 0 0  
   orientation 0 0 0 
:bonedata
  begin
     id 1 
     name lhipjoint
     direction 0.575328 -0.747301 0.332475 
     length 2.40933 
     axis 0 0 0  XYZ
  end
  begin
     id 2 
     name lfemur
     direction 0.34202 -0.939693 0  
     length 7.31453  
     axis 0 0 20  XYZ
    dof rx ry rz
    limits (-160.0 20.0)
           (-70.0 70.0)
           (-60.0 70.0)
  end
  begin
     id 3 
     name ltibia
     direction 0.34202 -0.939693 0   
     length 7.82185   
     axis 0 0 20   XYZ
    dof rx
    limits (-10.0 170.0)
  end
  begin
     id 4 
     name lfoot
     direction 0.0795993 -0.218697 0.972541   
     length 2.19173   
     axis -90 7.62852e-016 20   XYZ
    dof rx rz
    limits (-45.0 90.0)
           (-70.0 20.0)
  end
  begin
     id 5 
     name ltoes
     direction 1.53537e-011 -4.21894e-011 1   
     length 1.10023   
     axis -90 7.62852e-016 20   XYZ
    dof rx
    limits (-90.0 20.0)
  end
  begin
     id 6 
     name rhipjoint
     direction -0.513884 -0.783789 0.348708   
     length 2.29716  
     axis 0 0 0  XYZ 
  end
  begin
     id 7 
     name rfemur
     direction -0.34202 -0.939693 0   
     length 7.59573   
     axis 0 0 -20   XYZ
    dof rx ry rz
    limits (-160.0 20.0)
           (-70.0 70.0)
           (-70.0 60.0)
  end
  begin
     id 8 
     name rtibia
     direction -0.34202 -0.939693 0   
     length 7.66402   
     axis 0 0 -20   XYZ
    dof rx
    limits (-10.0 170.0)
 end
 begin
     id 9 
     name rfoot
     direction -0.137793 -0.378584 0.915253   
     length 2.27056  
     axis -90 -7.62852e-016 -20   XYZ
    dof rx rz
    limits (-45.0 90.0)
           (-20.0 70.0)
  end
  begin
     id 10 
     name rtoes
     direction -1.53493e-011 -4.22159e-011 1   
     length 1.11766   
     axis -90 -7.62852e-016 -20   XYZ
    dof rx
    limits (-90.0 20.0)
  end
  begin
     id 11 
     name lowerback
     direction -0.00732775 0.998356 -0.05685   
     length 2.16513   
     axis 0 0 0   XYZ
    dof rx ry rz
    limits (-20.0 45.0)
           (-30.0 30.0)
           (-30.0 30.0)
  end
  begin
     id 12 
     name upperback
     direction 0.0218081 0.999627 -0.0164647   
     length 2.16755   
     axis 0 0 0   XYZ
    dof rx ry rz
    limits (-20.0 45.0)
           (-30.0 30.0)
           (-30.0 30.0)
  end
  begin
     id 13 
     name thorax
     direction 0.02365 0.999661 0.0108914   
     length 2.16932   
     axis 0 0 0   XYZ
    dof rx ry rz
    limits (-20.0 45.0)
           (-30.0 30.0)
           (-30.0 30.0)
  end
  begin
     id 14 
     name lowerneck
     direction -0.0523929 0.978385 0.200044   
     length 1.63877   
     axis 0 0 0   XYZ
    dof rx ry rz
    limits (-20.0 45.0)
           (-30.0 30.0)
           (-30.0 30.0)
  end
  begin
     id 15 
     name upperneck
     direction 0.0448674 0.981321 -0.187074   
     length 1.69014   
     axis 0 0 0   XYZ
    dof rx ry rz
    limits (-20.0 45.0)
           (-30.0 30.0)
           (-30.0 30.0)
  end
  begin
     id 16
     name head
     direction 0.0199089 0.996118 -0.0857429  
     length 1.70094  
     axis 0 0 0   XYZ
    dof rx ry rz
    limits (-20.0 45.0)
           (-30.0 30.0)
           (-30.0 30.0)
  end
  begin
     id 17 
     name lclavicle
     direction 0.940366 0.30191 -0.156722  
     length 3.37521  
     axis 0 0 0   XYZ
    dof ry rz
    limits (-20.0 10.0)
           (0.0 20.0)
  end
  begin
     id 18 
     name lhumerus
     direction 1 -4.4897e-011 -1.7911e-027   
     length 5.25287   
     axis 180 -30 -90   XYZ
    dof rx ry rz
    limits (-60.0 90.0)
           (-90.0 90.0)
           (-90.0 90.0)
  end
  begin
     id 19
     name lradius
     direction 1 -4.48951e-011 1.04424e-027   
     length 3.51014   
     axis 180 -30 -90   XYZ
    dof rx
    limits (-10.0 170.0)
  end
  begin
     id 20
     name lwrist
     direction 1 -4.48997e-011 -9.5942e-028   
     length 1.75507   
     axis 8.48502e-016 90 90   XYZ
    dof ry
    limits (-180.0 0.0)
 end
  begin
     id 21 
     name lhand
     direction 1 -4.48831e-011 -1.90777e-027   
     length 0.706179   
     axis 1.22306e-015 90 90   XYZ
    dof rx rz
    limits (-90.0 90.0)
           (-45.0 45.0)
  end
  begin
     id 22 
     name lfingers
     direction 1 -4.49108e-011 -3.85244e-027   
     length 0.569339   
     axis 2.44611e-015 90 90   XYZ
    dof rx
    limits (0.0 90.0)
  end
  begin
     id 23
     name lthumb
     direction 0.707107 -6.34953e-011 0.707107   
     length 0.817461   
     axis -90 45 -1.62303e-014   XYZ
    dof rx rz
    limits (-45.0 45.0)
           (-45.0 45.0)
  end
  begin
     id 24 
     name rclavicle
     direction -0.905329 0.382405 -0.184787   
     length 3.30787  
     axis 0 0 0   XYZ 
    dof ry rz
    limits (-10.0 20.0)
           (-20.0 0.0)
  end
  begin
     id 25 
     name rhumerus
     direction -1 -4.48953e-011 -9.15316e-029  
     length 5.28721   
     axis 180 30 90   XYZ
    dof rx ry rz
    limits (-90.0 60.0)
           (-90.0 90.0)
           (-90.0 90.0)
  end
  begin
     id 26 
     name rradius
     direction -1 -4.48987e-011 9.37824e-028   
     length 3.50544   
     axis 180 30 90   XYZ
    dof rx
    limits (-10.0 170.0)
  end
  begin
     id 27 
     name rwrist
     direction -1 -4.48967e-011 -9.58414e-028   
     length 1.75272   
     axis 8.48502e-016 -90 -90   XYZ
    dof ry
    limits (-180.0 0.0)
  end
  begin
     id 28
     name rhand
     direction -1 -4.48904e-011 -1.91266e-027   
     length 0.884996   
     axis 1.22306e-015 -90 -90   XYZ
    dof rx rz
    limits (-90.0 90.0)
           (-45.0 45.0)
  end
  begin
     id 29
     name rfingers
     direction -1 -4.4909e-011 -3.85015e-027   
     length 0.713507   
     axis 2.44611e-015 -90 -90   XYZ
    dof rx
    limits (0.0 90.0)
  end
  begin
     id 30
     name rthumb
     direction -0.707107 -6.34853e-011 0.707107   
     length 1.02446   
     axis -90 -45 1.62303e-014   XYZ
    dof rx rz
    limits (-45.0 45.0)
           (-45.0 45.0)
  end
:hierarchy
  begin
    root lhipjoint rhipjoint lowerback
    lhipjoint lfemur
    lfemur ltibia
    ltibia lfoot
    lfoot ltoes
    rhipjoint rfemur
    rfemur rtibia
    rtibia rfoot
    rfoot rtoes
    lowerback upperback
    upperback thorax
    thorax lowerneck lclavicle rclavicle
    lowerneck upperneck
    upperneck head
    lclavicle lhumerus
    lhumerus lradius
    lradius lwrist
    lwrist lhand lthumb
    lhand lfingers
    rclavicle rhumerus
    rhumerus rradius
    rradius rwrist
    rwrist rhand rthumb
    rhand rfingers
  end

#!OML:ASF F:\twosubjects\two\Thursday\Session 1\justin.ASF
:FULLY-SPECIFIED
:DEGREES
66
root -3.24289 18.2941 11.1991 3.76846 33.4214 2.53098
lowerback 1.55453 3.71798 -2.89903
upperback 4.27625 4.93747 2.93959
thorax 3.03858 2.34532 4.69541
lowerneck -10.9032 17.0152 2.81988
upperneck 29.9604 26.4887 -5.48078
head 12.9963 11.6413 1.48494
rclavicle 1.72943e-014 -4.77083e-015
rhumerus -42.7103 -37.8376 -56.1516
rradius 18.9365
rwrist 14.9331
rhand -22.5253 9.91655
rfingers 7.12502
rthumb 3.9015 -20.0275
lclavicle 1.72943e-014 -4.77083e-015
lhumerus -17.8086 -0.768019 84.5456
lradius 47.5435
lwrist -5.65094
lhand -3.12263 38.5747
lfingers 7.12502
lthumb 22.5963 67.2722
rfemur -23.3749 -10.8077 16.0624
rtibia 29.1422
rfoot -8.44487 -12.2817
rtoes -6.97186
lfemur -0.0943062 -8.13578 -16.4886
ltibia 26.348
lfoot -9.4333 -16.0371
ltoes -26.0781
67
root -3.24685 18.318 11.3391 3.68508 33.3178 2.51102
lowerback 1.4069 3.77108 -2.86371
upperback 4.24928 5.01036 2.95643
thorax 3.08758 2.38158 4.70272
lowerneck -10.6125 16.9931 2.98493
upperneck 30.0146 26.4632 -5.54469
head 12.9973 11.6522 1.41541
rclavicle -6.2816e-014 3.02153e-014
rhumerus -41.7165 -37.8945 -57.2762
rradius 18.9089
rwrist 15.5808
rhand -22.9512 10.6253
rfingers 7.12502
rthumb 3.49026 -19.3258
lclavicle -6.2816e-014 3.02153e-014
lhumerus -18.1403 0.20762 84.6134
lradius 46.42
lwrist -5.89989
lhand -4.94722 37.1649
lfingers 7.12502
lthumb 20.8441 66.0652
rfemur -23.0546 -10.6948 16.1971
rtibia 29.2992
rfoot -9.19151 -12.1251
rtoes -4.38088
lfemur -0.747924 -8.33709 -16.2306
ltibia 28.1789
lfoot -8.37902 -16.5932
ltoes -28.2703
68
root -3.25644 18.3175 11.4757 3.75008 33.213 2.54797
lowerback 1.24286 3.80462 -2.9587
upperback 4.11431 5.05817 2.95466
thorax 3.02705 2.4056 4.75923
lowerneck -10.2441 17.0102 3.27098
upperneck 30.0595 26.4513 -5.56144
head 12.989 11.6909 1.34169
rclavicle 7.03698e-014 -6.36111e-015
rhumerus -40.7367 -37.6946 -58.5495
rradius 18.9259
rwrist 16.0237
rhand -23.3256 11.4028
rfingers 7.12502
rthumb 3.12869 -18.554
lclavicle 7.03698e-014 -6.36111e-015
lhumerus -18.5826 1.24126 84.6237
lradius 45.3973
lwrist -6.11614
lhand -1.67735 39.8543
lfingers 7.12502
lthumb 23.9828 68.3762
rfemur -22.6943 -11.1538 16.6059
rtibia 29.3894
rfoot -9.51681 -11.7884
rtoes -7.46439
lfemur -1.75468 -8.38904 -15.9439
ltibia 30.2193
lfoot -7.07333 -17.4658
ltoes -29.6455
69
root -3.26584 18.3395 11.6088 3.55372 33.1657 2.43932
lowerback 1.31121 3.84685 -2.89428
upperback 4.05881 5.11103 3.04518
thorax 2.92285 2.43643 4.80862
lowerneck -10.1565 17.0161 3.32037
upperneck 30.2792 26.4555 -5.42625
head 13.0475 11.7082 1.38404
rclavicle -2.40529e-014 2.06736e-014
rhumerus -39.5717 -37.4582 -59.8315
rradius 18.9003
rwrist 16.5015
rhand -23.9127 11.9973
rfingers 7.12502
rthumb 2.56166 -17.967
lclavicle -2.40529e-014 2.06736e-014
lhumerus -18.7837 2.43259 84.7709
lradius 44.0395
lwrist -6.29634
lhand 1.71857 48.1915
lfingers 7.12502
lthumb 27.2354 76.2452
rfemur -22.2516 -10.9634 16.7859
rtibia 29.4115
rfoot -10.0123 -11.6147
rtoes -5.76369
lfemur -2.68576 -8.35988 -15.507
ltibia 32.2281
lfoot -4.93501 -18.6147
ltoes -28.2674
70
root -3.2732 18.3233 11.7374 3.19187 33.2158 2.13308
lowerback 1.38783 3.86651 -2.59828
upperback 4.0793 5.13225 3.16494
thorax 2.91276 2.45453 4.7627
lowerneck -10.4692 16.9643 3.19911
upperneck 30.7234 26.4074 -5.15653
head 13.2279 11.6657 1.53528
rclavicle 1.68967e-013 2.54444e-014
rhumerus -38.0817 -36.6028 -61.6645
rradius 19.2011
rwrist 16.1272
rhand -24.6944 11.9311
rfingers 7.12502
rthumb 1.80674 -18.041
lclavicle 1.68967e-013 2.54444e-014
lhumerus -18.9799 3.39822 84.8609
lradius 42.6881
lwrist -6.26574
lhand 3.92601 53.844
lfingers 7.12502
lthumb 29.3451 81.5478
rfemur -21.3538 -11.5042 17.4518
rtibia 29.2933
rfoot -10.316 -11.3457
rtoes -9.34775
lfemur -3.63992 -8.53452 -14.8838
ltibia 34.3668
lfoot -2.32866 -19.6252
ltoes -24.9874
71
root -3.27665 18.3407 11.8745 2.83874 33.2089 1.78526
lowerback 1.25234 3.86261 -2.27665
upperback 4.17956 5.12444 3.27548
thorax 3.11091 2.45299 4.7144
lowerneck -11.0584 16.9311 2.95813
upperneck 31.2552 26.3102 -4.59189
head 13.4266 11.6057 1.82182
rclavicle -5.1684e-014 -3.18055e-015
rhumerus -36.3893 -35.0926 -63.9943
rradius 19.8476
rwrist 14.6639
rhand -25.2638 11.4134
rfingers 7.12502
rthumb 1.25679 -18.5626
lclavicle -5.1684e-014 -3.18055e-015
lhumerus -19.2014 4.43706 84.892
lradius 41.5621
lwrist -6.23357
lhand 5.19222 57.2763
lfingers 7.12502
lthumb 30.5533 84.762
rfemur -20.539 -11.277 17.9262
rtibia 29.0669
rfoot -10.8216 -11.4638
rtoes -9.87223
lfemur -4.5645 -8.65065 -14.2618
ltibia 36.3376
lfoot 0.34021 -20.4882
ltoes -21.8283
72
root -3.28354 18.3667 12.0073 2.53666 33.0879 1.51663
lowerback 1.35098 3.89598 -2.08503
upperback 4.13411 5.16423 3.43413
thorax 3.00636 2.47993 4.7617
lowerneck -11.1758 16.9438 2.92525
upperneck 31.4493 26.3296 -4.45063
head 13.5037 11.6125 1.89981
rclavicle -1.00585e-013 5.08889e-014
rhumerus -34.9742 -33.4311 -65.9148
rradius 20.4521
rwrist 13.3176
rhand -25.7637 11.1232
rfingers 7.12502
rthumb 0.774008 -18.8552
lclavicle -1.00585e-013 5.08889e-014
lhumerus -19.6649 5.71327 85.0251
lradius 40.5011
lwrist -6.4143
lhand 5.98012 58.919
lfingers 7.12502
lthumb 31.3044 86.262
rfemur -19.8361 -10.7506 18.2719
rtibia 28.7273
rfoot -11.2573 -11.6251
rtoes -8.78983
lfemur -5.54921 -8.67573 -13.7478
ltibia 38.2492
lfoot 3.16771 -21.1698
ltoes -19.1437
73
root -3.29296 18.3825 12.134 2.03733 32.9867 0.862987
lowerback 1.58756 4.00691 -1.49173
upperback 3.97233 5.30723 3.59421
thorax 2.72855 2.57463 4.56821
lowerneck -10.9182 16.8694 3.33461
upperneck 31.4672 26.2662 -4.76146
head 13.5786 11.5986 1.72079
rclavicle -1.96399e-013 1.59028e-014
rhumerus -33.8428 -31.882 -67.6031
rradius 21.045
rwrist 12.0566
rhand -26.4456 11.6276
rfingers 7.12502
rthumb 0.115341 -18.3521
lclavicle -1.96399e-013 1.59028e-014
lhumerus -20.1663 6.37772 85.0617
lradius 39.3717
lwrist -6.39565
lhand 6.51394 59.0247
lfingers 7.12502
lthumb 31.8129 86.268
rfemur -19.1165 -10.4564 19.0383
rtibia 28.2469
rfoot -11.4199 -11.5983
rtoes -7.56489
lfemur -6.53182 -8.73383 -12.8755
ltibia 40.0587
lfoot 5.86942 -21.871
ltoes -15.8876
74
root -3.29236 18.3881 12.2636 1.43365 32.8205 0.136167
lowerback 1.48643 4.06976 -0.848903
upperback 4.05619 5.38442 3.77588
thorax 2.906 2.62559 4.41207
lowerneck -11.0789 16.7731 3.35627
upperneck 31.5887 26.1182 -4.69439
head 13.647 11.528 1.73992
rclavicle -8.92543e-014 -3.02153e-014
rhumerus -32.2903 -29.9954 -69.5997
rradius 21.6835
rwrist 10.4685
rhand -27.2411 12.2774
rfingers 7.12502
rthumb -0.652993 -17.7013
lclavicle -8.92543e-014 -3.02153e-014
lhumerus -20.244 7.10128 85.0733
lradius 38.0719
lwrist -6.37808
lhand 6.70954 58.1527
lfingers 7.12502
lthumb 31.9992 85.3588
rfemur -18.1622 -10.3678 19.8829
rtibia 27.6508
rfoot -11.4661 -11.4318
rtoes -8.32644
lfemur -7.37976 -8.72057 -11.9941
ltibia 41.9062
lfoot 7.8031 -22.6188
ltoes -12.7365
75
root -3.28689 18.3843 12.3874 0.875056 32.5911 -0.539567
lowerback 1.36118 4.1043 -0.331489
upperback 4.14023 5.42076 4.04141
thorax 3.08292 2.65268 4.41566
lowerneck -11.2761 16.7442 3.08793
upperneck 31.6489 26.0248 -4.38921
head 13.6096 11.4884 1.87573
rclavicle 9.93923e-014 -7.95139e-015
rhumerus -30.8265 -28.1007 -71.2499
rradius 22.3218
rwrist 9.14721
rhand -27.5531 12.2284
rfingers 7.12502
rthumb -0.954333 -17.7492
lclavicle 9.93923e-014 -7.95139e-015
lhumerus -20.4384 8.46299 85.1766
lradius 36.6373
lwrist -6.77433
lhand 6.36487 56.3438
lfingers 7.12502
lthumb 31.6709 83.6152
rfemur -17.1507 -10.548 20.767
rtibia 27.0364
rfoot -11.3397 -11.2902
rtoes -12.0759
lfemur -8.24493 -8.74743 -11.2134
ltibia 43.7997
lfoot 8.99683 -23.239
ltoes -11.3864
76
root -3.28639 18.39 12.5001 0.232687 32.4037 -1.43024
lowerback 1.56856 4.19133 0.457419
upperback 4.03494 5.53607 4.31843
thorax 2.89541 2.73402 4.24153
lowerneck -11.1632 16.727 3.0341
upperneck 31.5323 25.9746 -4.34885
head 13.5176 11.484 1.86627
rclavicle 3.37934e-014 -2.06736e-014
rhumerus -29.7599 -26.3762 -72.5569
rradius 23.0069
rwrist 7.77116
rhand -27.286 11.9481
rfingers 7.12502
rthumb -0.696321 -18.0305
lclavicle 3.37934e-014 -2.06736e-014
lhumerus -20.9762 9.57311 85.2579
lradius 35.2922
lwrist -7.12559
lhand 5.59862 53.9341
lfingers 7.12502
lthumb 30.9408 81.3469
rfemur -16.2939 -10.7858 21.8447
rtibia 26.4709
rfoot -11.209 -11.139
rtoes -14.2685
lfemur -9.23904 -8.75241 -10.2022
ltibia 45.6835
lfoot 10.2534 -23.7219
ltoes -10.0704
77
root -3.28122 18.4136 12.613 -0.273697 32.1408 -2.02147
lowerback 1.76934 4.27871 1.0867
upperback 4.01148 5.6559 4.49984
thorax 2.79309 2.81133 4.06261
lowerneck -11.3176 16.7175 2.93142
upperneck 31.6134 26.0004 -4.33135
head 13.5667 11.4757 1.90954
rclavicle 8.62725e-014 1.59028e-014
rhumerus -28.5499 -24.4305 -73.9429
rradius 23.6856
rwrist 6.08883
rhand -27.006 11.9294
rfingers 7.12502
rthumb -0.425852 -18.0499
lclavicle 8.62725e-014 1.59028e-014
lhumerus -21.2966 10.1899 85.3809
lradius 33.8932
lwrist -7.19343
lhand 4.72343 51.0958
lfingers 7.12502
lthumb 30.1061 78.6638
rfemur -15.5085 -10.8327 22.4757
rtibia 25.9648
rfoot -11.4454 -10.7096
rtoes -12.0543
lfemur -10.0617 -8.65081 -9.50947
ltibia 47.46
lfoot 11.5713 -23.8259
ltoes -8.1585
78
root -3.27109 18.4313 12.7318 -0.576823 31.7536 -2.21392
lowerback 1.79044 4.38383 1.35897
upperback 4.03551 5.79482 4.56139
thorax 2.81872 2.88747 3.97577
lowerneck -11.3856 16.6978 3.23547
upperneck 31.7806 26.0184 -4.51997
head 13.737 11.4727 1.83903
rclavicle -3.99557e-014 -1.74931e-014
rhumerus -27.4592 -22.7597 -75.1615
rradius 24.3745
rwrist 4.8395
rhand -26.7731 12.1484
rfingers 7.12502
rthumb -0.200975 -17.8313
lclavicle -3.99557e-014 -1.74931e-014
lhumerus -21.6723 10.8241 85.4336
lradius 32.7015
lwrist -7.47305
lhand 4.02359 48.1739
lfingers 7.12502
lthumb 29.4382 75.8614
rfemur -14.7212 -10.8079 22.7216
rtibia 25.5667
rfoot -11.7168 -10.3329
rtoes -9.97688
lfemur -10.6237 -8.53372 -9.28175
ltibia 49.0701
lfoot 11.754 -23.7285
ltoes -8.98775
79
root -3.26571 18.4415 12.8501 -0.718302 31.3987 -2.35461
lowerback 1.68091 4.45549 1.45515
upperback 4.01103 5.88592 4.61623
thorax 2.85382 2.93472 3.98795
lowerneck -11.249 16.7498 3.68153
upperneck 31.7274 26.1174 -4.85256
head 13.8231 11.5245 1.68431
rclavicle 1.78906e-014 1.43125e-014
rhumerus -26.4689 -21.0756 -76.3126
rradius 25.1461
rwrist 3.90492
rhand -26.7879 12.4239
rfingers 7.12502
rthumb -0.215204 -17.5558
lclavicle 1.78906e-014 1.43125e-014
lhumerus -22.1106 12.1393 85.3123
lradius 31.5351
lwrist -8.2803
lhand 3.20338 45.3272
lfingers 7.12502
lthumb 28.6549 73.1498
rfemur -14.135 -10.6682 23.0167
rtibia 25.3087
rfoot -11.9098 -10.3307
rtoes -10.075
lfemur -11.3191 -8.46706 -9.07793
ltibia 50.5037
lfoot 11.3335 -23.2387
ltoes -10.7128
